<svg width="990" height="400" viewBox="0 0 990 400" fill="none" xmlns="http://www.w3.org/2000/svg">
<g filter="url(#filter0_f_13_11)">
<path d="M237.027 171.41C237.653 171.399 238.279 171.387 238.924 171.376C249.88 171.327 259.544 175.378 267.555 182.786C276.199 191.977 279.296 203.547 278.978 215.886C278.366 230.323 271.567 243.088 261.986 253.588C261.637 253.982 261.287 254.376 260.927 254.782C256.479 259.54 250.904 263.365 245.109 266.288C244.79 266.449 244.471 266.611 244.143 266.777C237.939 269.756 231.636 271.451 224.874 272.598C224.066 272.74 223.259 272.882 222.452 273.026C220.266 273.412 218.079 273.79 215.892 274.166C213.546 274.571 211.203 274.984 208.859 275.396C204.847 276.1 200.835 276.8 196.822 277.496C171.723 281.849 146.629 286.236 121.546 290.677C120.374 290.884 119.201 291.092 118.029 291.299C112.251 292.322 106.473 293.345 100.694 294.369C96.7756 295.063 92.8569 295.757 88.938 296.449C87.7742 296.654 86.6104 296.86 85.4467 297.067C83.8854 297.344 82.3238 297.619 80.7621 297.895C80.3064 297.976 79.8506 298.057 79.381 298.141C76.2933 298.684 76.2933 298.684 75.0827 298.684C74.2118 287.047 80.3433 276.308 87.6471 267.714C95.4944 259.256 105.59 254.348 117.005 252.819C119.356 252.461 121.672 251.992 124.001 251.51C129.486 250.394 134.993 249.442 140.514 248.523C164.539 244.52 188.428 239.768 212.496 236.011C215.618 235.519 218.709 234.992 221.787 234.273C223.506 233.883 225.242 233.593 226.976 233.281C231.22 232.427 234.794 231.548 237.484 227.92C239.609 224.517 240.988 221.244 240.253 217.185C239.143 214.173 237.136 212.094 234.277 210.665C229.425 210.332 224.86 210.928 220.116 211.887C219.472 212.012 218.828 212.136 218.165 212.264C215.407 212.8 212.653 213.355 209.904 213.931C203.388 215.29 196.84 216.341 190.264 217.362C175.28 219.691 160.417 222.633 145.483 225.242C143.155 225.651 140.832 226.081 138.512 226.532C123.024 229.532 107.015 232.359 93.0124 223.161C85.2292 217.701 79.1766 210.19 76.7127 200.885C76.7127 200.168 76.7127 199.451 76.7127 198.712C82.9607 197.55 89.2073 196.408 95.4941 195.473C97.4423 195.178 99.3623 194.838 101.283 194.396C103.716 193.849 106.156 193.381 108.61 192.941C109.044 192.863 109.478 192.784 109.926 192.703C111.317 192.452 112.709 192.203 114.1 191.954C114.574 191.869 115.048 191.784 115.536 191.696C152.209 185.119 189.046 180.106 225.527 172.316C229.395 171.549 233.091 171.427 237.027 171.41Z" fill="#3DAF01"/>
<path d="M278.829 102C279.278 113.663 273.946 124.368 266.301 132.912C259.855 139.85 252.119 144.283 242.97 146.553C242.627 146.639 242.284 146.726 241.93 146.815C235.727 148.356 229.451 149.375 223.137 150.341C176.666 157.534 130.551 166.817 84.2041 174.735C81.7112 175.158 79.2176 175.547 76.7129 175.892C78.3463 162.4 87.7476 149.582 98.119 141.24C109.156 132.661 121.467 129.149 135.086 126.959C176.283 120.112 217.328 112.35 258.486 105.264C259.046 105.167 259.606 105.071 260.184 104.971C261.269 104.784 262.354 104.598 263.44 104.412C265.883 103.992 268.326 103.567 270.766 103.129C271.196 103.052 271.625 102.975 272.068 102.895C272.857 102.753 273.646 102.61 274.435 102.465C275.929 102.196 277.307 102 278.829 102Z" fill="#3DAF01"/>
</g>
<path d="M237.027 171.41C237.653 171.399 238.279 171.387 238.924 171.376C249.88 171.327 259.544 175.378 267.555 182.786C276.199 191.977 279.296 203.547 278.978 215.886C278.366 230.323 271.567 243.088 261.986 253.588C261.637 253.982 261.287 254.376 260.927 254.782C256.479 259.54 250.904 263.365 245.109 266.288C244.79 266.449 244.471 266.611 244.143 266.777C237.939 269.756 231.636 271.451 224.874 272.598C224.066 272.74 223.259 272.882 222.452 273.026C220.266 273.412 218.079 273.79 215.892 274.166C213.546 274.571 211.203 274.984 208.859 275.396C204.847 276.1 200.835 276.8 196.822 277.496C171.723 281.849 146.629 286.236 121.546 290.677C120.374 290.884 119.201 291.092 118.029 291.299C112.251 292.322 106.473 293.345 100.694 294.369C96.7756 295.063 92.8569 295.757 88.938 296.449C87.7742 296.654 86.6104 296.86 85.4467 297.067C83.8854 297.344 82.3238 297.619 80.7621 297.895C80.3064 297.976 79.8506 298.057 79.381 298.141C76.2933 298.684 76.2933 298.684 75.0827 298.684C74.2118 287.047 80.3433 276.308 87.6471 267.714C95.4944 259.256 105.59 254.348 117.005 252.819C119.356 252.461 121.672 251.992 124.001 251.51C129.486 250.394 134.993 249.442 140.514 248.523C164.539 244.52 188.428 239.768 212.496 236.011C215.618 235.519 218.709 234.992 221.787 234.273C223.506 233.883 225.242 233.593 226.976 233.281C231.22 232.427 234.794 231.548 237.484 227.92C239.609 224.517 240.988 221.244 240.253 217.185C239.143 214.173 237.136 212.094 234.277 210.665C229.425 210.332 224.86 210.928 220.116 211.887C219.472 212.012 218.828 212.136 218.165 212.264C215.407 212.8 212.653 213.355 209.904 213.931C203.388 215.29 196.84 216.341 190.264 217.362C175.28 219.691 160.417 222.633 145.483 225.242C143.155 225.651 140.832 226.081 138.512 226.532C123.024 229.532 107.015 232.359 93.0124 223.161C85.2292 217.701 79.1766 210.19 76.7127 200.885C76.7127 200.168 76.7127 199.451 76.7127 198.712C82.9607 197.55 89.2073 196.408 95.4941 195.473C97.4423 195.178 99.3623 194.838 101.283 194.396C103.716 193.849 106.156 193.381 108.61 192.941C109.044 192.863 109.478 192.784 109.926 192.703C111.317 192.452 112.709 192.203 114.1 191.954C114.574 191.869 115.048 191.784 115.536 191.696C152.209 185.119 189.046 180.106 225.527 172.316C229.395 171.549 233.091 171.427 237.027 171.41Z" fill="#3DAF01"/>
<path d="M278.829 102C279.278 113.663 273.946 124.368 266.301 132.912C259.855 139.85 252.119 144.283 242.97 146.553C242.627 146.639 242.284 146.726 241.93 146.815C235.727 148.356 229.451 149.375 223.137 150.341C176.666 157.534 130.551 166.817 84.2041 174.735C81.7112 175.158 79.2176 175.547 76.7129 175.892C78.3463 162.4 87.7476 149.582 98.119 141.24C109.156 132.661 121.467 129.149 135.086 126.959C176.283 120.112 217.328 112.35 258.486 105.264C259.046 105.167 259.606 105.071 260.184 104.971C261.269 104.784 262.354 104.598 263.44 104.412C265.883 103.992 268.326 103.567 270.766 103.129C271.196 103.052 271.625 102.975 272.068 102.895C272.857 102.753 273.646 102.61 274.435 102.465C275.929 102.196 277.307 102 278.829 102Z" fill="#3DAF01"/>
<g filter="url(#filter1_f_13_11)">
<path d="M408.833 280.602C377.614 280.602 356.802 267.594 350.731 249.816C349.756 247.215 349.214 244.396 349.214 241.795C349.214 233.99 354.2 229.004 361.571 229.004C367.75 229.004 371.652 231.497 374.688 237.784C379.565 251.334 393.007 257.404 409.7 257.404C428.562 257.404 441.786 248.082 441.786 235.074C441.786 223.801 433.981 216.863 413.603 212.636L396.801 209.167C365.474 202.771 350.84 188.029 350.84 165.157C350.84 137.624 375.013 118.979 408.941 118.979C436.583 118.979 458.046 131.337 464.441 152.041C465.092 153.775 465.417 155.835 465.417 158.437C465.417 165.266 460.539 169.927 453.276 169.927C446.772 169.927 442.762 167.108 439.835 161.038C434.523 147.813 423.358 142.177 408.725 142.177C391.381 142.177 379.023 150.415 379.023 163.531C379.023 174.154 386.828 180.983 406.34 185.103L423.142 188.571C456.095 195.4 469.97 208.625 469.97 231.822C469.97 261.74 446.447 280.602 408.833 280.602ZM526.15 280.168C518.237 280.168 512.709 275.073 512.709 265.968V174.479C512.709 166.133 517.587 160.821 525.608 160.821C533.522 160.821 538.941 166.133 538.941 174.479V182.501H539.483C545.662 168.843 557.586 160.93 575.255 160.93C600.62 160.93 615.037 177.189 615.037 203.747V265.968C615.037 275.073 609.509 280.168 601.596 280.168C593.683 280.168 588.046 275.073 588.046 265.968V209.167C588.046 192.907 580.458 183.802 565.066 183.802C549.565 183.802 539.7 194.967 539.7 211.443V265.968C539.7 275.073 534.064 280.168 526.15 280.168ZM694.849 279.843C672.627 279.843 656.476 265.859 656.476 245.155C656.476 224.776 672.194 212.527 700.16 210.793L730.62 209.059V200.82C730.62 188.788 722.49 181.851 709.157 181.851C698.643 181.851 691.814 185.428 685.093 195.292C682.275 198.978 678.697 200.712 674.145 200.712C667.532 200.712 662.763 196.376 662.763 189.872C662.763 187.379 663.413 184.994 664.606 182.501C670.459 169.168 688.236 160.713 710.241 160.713C738.75 160.713 757.286 175.78 757.286 198.869V266.618C757.286 275.29 751.758 280.168 744.17 280.168C736.799 280.168 731.704 275.724 731.271 267.702V259.681H730.729C724.116 272.146 709.699 279.843 694.849 279.843ZM703.087 259.464C718.263 259.464 730.62 249.274 730.62 235.399V226.619L703.954 228.245C690.946 229.112 683.467 234.966 683.467 244.071C683.467 253.502 691.38 259.464 703.087 259.464ZM817.586 146.946C809.24 146.946 802.627 140.442 802.627 132.312C802.627 124.074 809.24 117.679 817.586 117.679C826.041 117.679 832.654 124.074 832.654 132.312C832.654 140.442 826.041 146.946 817.586 146.946ZM817.586 280.168C809.348 280.168 804.145 274.748 804.145 265.968V175.021C804.145 166.35 809.348 160.821 817.586 160.821C825.824 160.821 831.136 166.35 831.136 175.13V265.968C831.136 274.748 825.824 280.168 817.586 280.168ZM891.653 280.168C883.523 280.168 878.211 274.856 878.211 265.968V174.479C878.211 166.024 883.414 160.821 891.111 160.821C898.59 160.821 903.902 166.024 903.902 174.479V183.26H904.444C907.587 169.818 917.56 161.146 929.05 161.146C933.278 161.146 936.53 162.23 938.589 164.073C941.082 166.133 942.383 169.385 942.383 173.829C942.383 178.057 941.082 181.2 938.372 183.368C935.771 185.645 931.76 186.837 926.449 186.945C911.056 187.054 905.202 196.701 905.202 210.685V265.968C905.202 274.856 899.783 280.168 891.653 280.168Z" fill="#3DAF01"/>
</g>
<g filter="url(#filter2_d_13_11)">
<path d="M408.833 280.602C377.614 280.602 356.802 267.594 350.731 249.816C349.756 247.215 349.214 244.396 349.214 241.795C349.214 233.99 354.2 229.004 361.571 229.004C367.75 229.004 371.652 231.497 374.688 237.784C379.565 251.334 393.007 257.404 409.7 257.404C428.562 257.404 441.786 248.082 441.786 235.074C441.786 223.801 433.981 216.863 413.603 212.636L396.801 209.167C365.474 202.771 350.84 188.029 350.84 165.157C350.84 137.624 375.013 118.979 408.941 118.979C436.583 118.979 458.046 131.337 464.441 152.041C465.092 153.775 465.417 155.835 465.417 158.437C465.417 165.266 460.539 169.927 453.276 169.927C446.772 169.927 442.762 167.108 439.835 161.038C434.523 147.813 423.358 142.177 408.725 142.177C391.381 142.177 379.023 150.415 379.023 163.531C379.023 174.154 386.828 180.983 406.34 185.103L423.142 188.571C456.095 195.4 469.97 208.625 469.97 231.822C469.97 261.74 446.447 280.602 408.833 280.602ZM526.15 280.168C518.237 280.168 512.709 275.073 512.709 265.968V174.479C512.709 166.133 517.587 160.821 525.608 160.821C533.522 160.821 538.941 166.133 538.941 174.479V182.501H539.483C545.662 168.843 557.586 160.93 575.255 160.93C600.62 160.93 615.037 177.189 615.037 203.747V265.968C615.037 275.073 609.509 280.168 601.596 280.168C593.683 280.168 588.046 275.073 588.046 265.968V209.167C588.046 192.907 580.458 183.802 565.066 183.802C549.565 183.802 539.7 194.967 539.7 211.443V265.968C539.7 275.073 534.064 280.168 526.15 280.168ZM694.849 279.843C672.627 279.843 656.476 265.859 656.476 245.155C656.476 224.776 672.194 212.527 700.16 210.793L730.62 209.059V200.82C730.62 188.788 722.49 181.851 709.157 181.851C698.643 181.851 691.814 185.428 685.093 195.292C682.275 198.978 678.697 200.712 674.145 200.712C667.532 200.712 662.763 196.376 662.763 189.872C662.763 187.379 663.413 184.994 664.606 182.501C670.459 169.168 688.236 160.713 710.241 160.713C738.75 160.713 757.286 175.78 757.286 198.869V266.618C757.286 275.29 751.758 280.168 744.17 280.168C736.799 280.168 731.704 275.724 731.271 267.702V259.681H730.729C724.116 272.146 709.699 279.843 694.849 279.843ZM703.087 259.464C718.263 259.464 730.62 249.274 730.62 235.399V226.619L703.954 228.245C690.946 229.112 683.467 234.966 683.467 244.071C683.467 253.502 691.38 259.464 703.087 259.464ZM817.586 146.946C809.24 146.946 802.627 140.442 802.627 132.312C802.627 124.074 809.24 117.679 817.586 117.679C826.041 117.679 832.654 124.074 832.654 132.312C832.654 140.442 826.041 146.946 817.586 146.946ZM817.586 280.168C809.348 280.168 804.145 274.748 804.145 265.968V175.021C804.145 166.35 809.348 160.821 817.586 160.821C825.824 160.821 831.136 166.35 831.136 175.13V265.968C831.136 274.748 825.824 280.168 817.586 280.168ZM891.653 280.168C883.523 280.168 878.211 274.856 878.211 265.968V174.479C878.211 166.024 883.414 160.821 891.111 160.821C898.59 160.821 903.902 166.024 903.902 174.479V183.26H904.444C907.587 169.818 917.56 161.146 929.05 161.146C933.278 161.146 936.53 162.23 938.589 164.073C941.082 166.133 942.383 169.385 942.383 173.829C942.383 178.057 941.082 181.2 938.372 183.368C935.771 185.645 931.76 186.837 926.449 186.945C911.056 187.054 905.202 196.701 905.202 210.685V265.968C905.202 274.856 899.783 280.168 891.653 280.168Z" fill="#3DAF01"/>
</g>
<defs>
<filter id="filter0_f_13_11" x="48.7" y="75.7" width="256.6" height="249.284" filterUnits="userSpaceOnUse" color-interpolation-filters="sRGB">
<feFlood flood-opacity="0" result="BackgroundImageFix"/>
<feBlend mode="normal" in="SourceGraphic" in2="BackgroundImageFix" result="shape"/>
<feGaussianBlur stdDeviation="13.15" result="effect1_foregroundBlur_13_11"/>
</filter>
<filter id="filter1_f_13_11" x="322.915" y="91.3787" width="645.768" height="215.523" filterUnits="userSpaceOnUse" color-interpolation-filters="sRGB">
<feFlood flood-opacity="0" result="BackgroundImageFix"/>
<feBlend mode="normal" in="SourceGraphic" in2="BackgroundImageFix" result="shape"/>
<feGaussianBlur stdDeviation="13.15" result="effect1_foregroundBlur_13_11"/>
</filter>
<filter id="filter2_d_13_11" x="347.615" y="116.079" width="610.368" height="180.123" filterUnits="userSpaceOnUse" color-interpolation-filters="sRGB">
<feFlood flood-opacity="0" result="BackgroundImageFix"/>
<feColorMatrix in="SourceAlpha" type="matrix" values="0 0 0 0 0 0 0 0 0 0 0 0 0 0 0 0 0 0 127 0" result="hardAlpha"/>
<feOffset dx="7" dy="7"/>
<feGaussianBlur stdDeviation="4.3"/>
<feComposite in2="hardAlpha" operator="out"/>
<feColorMatrix type="matrix" values="0 0 0 0 0 0 0 0 0 0 0 0 0 0 0 0 0 0 0.2 0"/>
<feBlend mode="normal" in2="BackgroundImageFix" result="effect1_dropShadow_13_11"/>
<feBlend mode="normal" in="SourceGraphic" in2="effect1_dropShadow_13_11" result="shape"/>
</filter>
</defs>
</svg>
